<svg width="24" height="22" viewBox="0 0 24 22" fill="none" xmlns="http://www.w3.org/2000/svg">
<path d="M12 9.88889V16.5556M8.7 13.2222H15.3M23 18.7778C23 19.3671 22.7682 19.9324 22.3556 20.3491C21.9431 20.7659 21.3835 21 20.8 21H3.2C2.61652 21 2.05695 20.7659 1.64436 20.3491C1.23178 19.9324 1 19.3671 1 18.7778V3.22222C1 2.63285 1.23178 2.06762 1.64436 1.65087C2.05695 1.23413 2.61652 1 3.2 1H8.7L10.9 4.33333H20.8C21.3835 4.33333 21.9431 4.56746 22.3556 4.98421C22.7682 5.40095 23 5.96619 23 6.55556V18.7778Z" stroke="white" stroke-width="2" stroke-linecap="round" stroke-linejoin="round"/>
</svg>