<svg width="32" height="32" viewBox="0 0 32 32" fill="none" xmlns="http://www.w3.org/2000/svg">
<path d="M16 29.3332C23.3638 29.3332 29.3333 23.3636 29.3333 15.9998C29.3333 8.63604 23.3638 2.6665 16 2.6665C8.63616 2.6665 2.66663 8.63604 2.66663 15.9998C2.66663 23.3636 8.63616 29.3332 16 29.3332Z" stroke="white" stroke-width="3" stroke-linecap="round" stroke-linejoin="round"/>
<path d="M16 23.9998C20.4182 23.9998 24 20.4181 24 15.9998C24 11.5816 20.4182 7.99984 16 7.99984C11.5817 7.99984 7.99996 11.5816 7.99996 15.9998C7.99996 20.4181 11.5817 23.9998 16 23.9998Z" stroke="white" stroke-width="3" stroke-linecap="round" stroke-linejoin="round"/>
<path d="M16 18.6665C17.4727 18.6665 18.6666 17.4726 18.6666 15.9998C18.6666 14.5271 17.4727 13.3332 16 13.3332C14.5272 13.3332 13.3333 14.5271 13.3333 15.9998C13.3333 17.4726 14.5272 18.6665 16 18.6665Z" stroke="white" stroke-width="3" stroke-linecap="round" stroke-linejoin="round"/>
</svg>
