<svg width="32" height="32" viewBox="0 0 32 32" fill="none" xmlns="http://www.w3.org/2000/svg">
<path d="M12.7866 6.12014C13.0964 5.80856 13.4783 5.57833 13.8985 5.44993C14.3186 5.32152 14.764 5.29892 15.195 5.38413C15.626 5.46933 16.0293 5.65971 16.369 5.93833C16.7087 6.21696 16.9743 6.57519 17.1421 6.9812C17.31 7.3872 17.375 7.82839 17.3312 8.26556C17.2875 8.70272 17.1365 9.12231 16.8915 9.48702C16.6465 9.85173 16.3153 10.1503 15.9271 10.3561C15.539 10.5619 15.106 10.6687 14.6666 10.6668H2.66663M16.7866 25.8801C17.0964 26.1917 17.4783 26.4219 17.8985 26.5504C18.3186 26.6788 18.764 26.7014 19.195 26.6162C19.626 26.5309 20.0293 26.3406 20.369 26.0619C20.7087 25.7833 20.9743 25.4251 21.1421 25.0191C21.31 24.6131 21.375 24.1719 21.3312 23.7347C21.2875 23.2976 21.1365 22.878 20.8915 22.5133C20.6465 22.1485 20.3153 21.85 19.9271 21.6442C19.539 21.4384 19.106 21.3316 18.6666 21.3335H2.66663M23.64 10.3068C24.0278 9.91999 24.5049 9.63469 25.0292 9.47616C25.5535 9.31762 26.1088 9.29073 26.6459 9.39785C27.1831 9.50498 27.6856 9.74283 28.109 10.0904C28.5323 10.4379 28.8635 10.8844 29.0733 11.3904C29.283 11.8964 29.3648 12.4463 29.3115 12.9914C29.2582 13.5365 29.0713 14.0601 28.7675 14.5159C28.4636 14.9716 28.0522 15.3455 27.5695 15.6043C27.0868 15.8632 26.5477 15.9992 26 16.0001H2.66663" stroke="white" stroke-width="3" stroke-linecap="round" stroke-linejoin="round"/>
</svg>
